<svg width="120" height="21" viewBox="0 0 120 21" fill="none" xmlns="http://www.w3.org/2000/svg">
<path d="M1.19945 20.3463V4.27935C1.19945 3.84431 1.1115 3.53132 0.937731 3.34234C0.766111 3.15337 0.453978 3.05888 0.00240349 3.05888C-0.0211943 2.5451 0.128973 2.13959 0.452905 1.84234C0.778982 1.54608 1.29599 1.39746 2.00606 1.39746C2.71828 1.39746 3.22564 1.72423 3.52919 2.37778C4.37012 1.72423 5.23358 1.39746 6.12064 1.39746C8.25731 1.39746 9.32564 2.36793 9.32564 4.30691V11.2006C9.32564 12.4477 8.75286 13.3384 7.60944 13.8738L8.28734 17.8541C8.39568 18.487 8.73034 18.803 9.29132 18.803C9.46294 18.803 9.66674 18.7636 9.90486 18.6849C9.99281 18.9211 10.0379 19.2036 10.0379 19.5313C10.0379 19.8571 9.85874 20.1839 9.50155 20.5116C9.14651 20.8364 8.6885 20.9998 8.12859 20.9998C6.85217 20.9998 6.12923 20.4959 5.95761 19.488L5.01799 14.3463H3.75658V17.9132L3.8853 20.7045C3.1527 20.8039 2.43082 20.8541 1.7186 20.8541C1.37214 20.8541 1.19945 20.6849 1.19945 20.3463ZM5.50281 3.35809C4.92145 3.35809 4.34009 3.62482 3.75658 4.1573V12.3856H5.24538C5.69696 12.3856 6.06272 12.2823 6.34375 12.0746C6.62692 11.8679 6.76851 11.5766 6.76851 11.2006V4.48407C6.76851 3.73407 6.34589 3.35809 5.50281 3.35809Z" fill="white"/>
<path d="M11.5879 17.9723V8.99991C11.5879 8.01074 11.9225 7.23909 12.5919 6.68496C13.2612 6.13181 14.1675 5.85425 15.312 5.85425C16.4555 5.85425 17.3457 6.11212 17.9807 6.6259C18.6179 7.14066 18.9375 7.89263 18.9375 8.8818V17.8542C18.9375 18.8444 18.5964 19.616 17.9164 20.1692C17.2385 20.7223 16.3267 20.9999 15.1833 20.9999C14.0388 20.9999 13.1539 20.742 12.5275 20.2283C11.9011 19.7145 11.5879 18.9625 11.5879 17.9723ZM14.0163 8.8818V17.9723C14.0163 18.309 14.1343 18.5905 14.3724 18.8188C14.6095 19.0472 14.9055 19.1613 15.2606 19.1613C15.6177 19.1613 15.9149 19.0472 16.153 18.8188C16.39 18.5905 16.5091 18.309 16.5091 17.9723V8.8818C16.5091 8.54618 16.39 8.26369 16.153 8.03535C15.9149 7.807 15.6177 7.69283 15.2606 7.69283C14.9055 7.69283 14.6095 7.807 14.3724 8.03535C14.1343 8.26369 14.0163 8.54618 14.0163 8.8818Z" fill="white"/>
<path d="M21.1399 2.2874C21.1399 1.69488 21.0423 1.09055 20.8481 0.476378C21.4939 0.159449 22.1846 0 22.9205 0C23.3495 0 23.564 0.148622 23.564 0.444882V6.62598C24.2333 6.1122 24.9241 5.85433 25.6363 5.85433C27.5349 5.85433 28.4852 6.86417 28.4852 8.88188V17.5551C28.4852 18.5453 28.1506 19.3179 27.4812 19.874C26.8141 20.4281 25.9088 20.7047 24.7654 20.7047H21.1399V2.2874ZM23.564 18.8031H24.8297C25.1955 18.8031 25.4915 18.6998 25.7179 18.4921C25.9431 18.2854 26.0568 18.0118 26.0568 17.6732V8.91338C26.0568 8.23917 25.7329 7.90157 25.0872 7.90157C24.4404 7.90157 23.933 8.20866 23.564 8.82283V18.8031Z" fill="white"/>
<path d="M36.288 1.39765C37.0656 1.39765 37.6481 1.34844 38.0342 1.24805C38.208 1.80218 38.2959 2.34647 38.2959 2.8819C38.2959 3.19982 38.1436 3.35828 37.8411 3.35828H35.3183V17.9134L35.447 20.7047C34.7112 20.8041 33.9883 20.8543 33.276 20.8543C32.9296 20.8543 32.7569 20.685 32.7569 20.3465V3.35828H31.7872C31.0117 3.35828 30.4293 3.40749 30.041 3.50395C29.8662 2.9508 29.7793 2.40553 29.7793 1.87009C29.7793 1.55513 29.9305 1.39765 30.2341 1.39765H36.288Z" fill="white"/>
<path d="M44.5725 9.03141C44.5725 8.63574 44.4416 8.32275 44.182 8.0944C43.9246 7.86606 43.6007 7.75188 43.2124 7.75188C42.4143 7.75188 42.0153 8.05897 42.0153 8.67314V12.9212L43.5685 11.8542C44.2378 11.3976 44.5725 10.4566 44.5725 9.03141ZM39.5869 18.059V8.76369C39.5869 6.82472 40.8322 5.85425 43.3239 5.85425C45.8178 5.85425 47.0652 6.94283 47.0652 9.11802C47.0652 9.99007 46.8915 10.7932 46.5461 11.5275C46.2029 12.2598 45.7288 12.8139 45.1259 13.1889L42.0153 15.1495V17.8542C42.0153 18.6869 42.4412 19.1023 43.2939 19.1023C44.1456 19.1023 44.5725 18.6367 44.5725 17.7046V17.0196L44.4781 15.6259C44.758 15.5659 45.0444 15.5353 45.3362 15.5353C45.6279 15.5353 45.9025 15.5747 46.1599 15.6535C46.677 15.7745 46.9365 16.0029 46.9365 16.3385V18.4763C46.9365 19.2696 46.5954 19.8887 45.9154 20.3346C45.2375 20.7775 44.3365 20.9999 43.2124 20.9999C40.7947 20.9999 39.5869 20.0196 39.5869 18.059Z" fill="white"/>
<path d="M55.0289 17.7046C55.8924 18.0619 56.3247 18.5767 56.3247 19.2479C56.3247 19.4664 56.2271 19.6446 56.0329 19.7834C55.1684 20.5944 53.863 20.9999 52.1157 20.9999C49.9125 20.9999 48.812 19.8916 48.812 17.6731V8.76369C48.812 6.82472 50.0648 5.85425 52.5705 5.85425C53.6688 5.85425 54.5312 6.08259 55.1576 6.53929C55.7841 6.99401 56.0973 7.60622 56.0973 8.37787V10.8149C56.0973 11.1515 55.8377 11.3779 55.3207 11.496C55.06 11.5747 54.7844 11.6141 54.4926 11.6141C54.203 11.6141 53.9188 11.5855 53.6388 11.5275C53.701 11.0924 53.7332 10.6259 53.7332 10.1298V9.14952C53.7332 8.65346 53.6356 8.29716 53.4415 8.07866C53.2462 7.86114 52.9116 7.75188 52.4375 7.75188C51.6394 7.75188 51.2404 8.05897 51.2404 8.67314V17.3188C51.2404 17.933 51.3477 18.3798 51.5622 18.6574C51.7789 18.933 52.1414 19.0708 52.6477 19.0708C53.1561 19.0708 53.6485 18.9231 54.1236 18.6259C54.5977 18.3296 54.9002 18.0225 55.0289 17.7046Z" fill="white"/>
<path d="M58.0081 2.2874C58.0081 1.69488 57.9105 1.09055 57.7163 0.476378C58.362 0.159449 59.0528 0 59.7886 0C60.2177 0 60.4322 0.148622 60.4322 0.444882V6.62598C61.1015 6.1122 61.8352 5.85433 62.6332 5.85433C63.4334 5.85433 64.0877 6.10236 64.594 6.59842C65.1002 7.09251 65.3534 7.79429 65.3534 8.70472V18.2401C65.3534 18.6555 65.4349 18.9518 65.5979 19.1299C65.761 19.309 66.0677 19.3976 66.5204 19.3976C66.5397 19.9124 66.3938 20.309 66.0828 20.5866C65.7706 20.8622 65.3116 21 64.7055 21C64.1016 21 63.6543 20.8317 63.3626 20.496C63.0708 20.1604 62.925 19.6063 62.925 18.8346V8.88188C62.925 8.22834 62.5581 7.90157 61.8266 7.90157C61.2227 7.90157 60.7583 8.20866 60.4322 8.82283V18.2677C60.4322 19.2185 60.5073 20.0108 60.6596 20.6457C60.0128 20.7638 59.3124 20.8228 58.5572 20.8228C58.1904 20.8228 58.0081 20.6752 58.0081 20.3779V2.2874Z" fill="white"/>
<path d="M71.6343 17.9724V4.24799C71.6343 3.25882 72 2.48717 72.7326 1.93303C73.4674 1.37693 74.4714 1.09839 75.7446 1.09839C77.0167 1.09839 78.0035 1.35725 78.705 1.87398C79.4086 2.38874 79.7605 3.14071 79.7605 4.12988V17.8543C79.7605 18.8444 79.3872 19.6161 78.6407 20.1692C77.8962 20.7224 76.888 20.9999 75.6159 20.9999C74.3427 20.9999 73.3601 20.7421 72.6683 20.2283C71.9786 19.7145 71.6343 18.9625 71.6343 17.9724ZM74.1914 4.24799V17.8543C74.1914 18.2086 74.3255 18.495 74.5947 18.7125C74.8661 18.9311 75.2276 19.0393 75.6802 19.0393C76.135 19.0393 76.5018 18.936 76.7829 18.7283C77.0628 18.5216 77.2033 18.2303 77.2033 17.8543V4.24799C77.2033 3.87299 77.0628 3.58165 76.7829 3.37398C76.5018 3.16433 76.135 3.05902 75.6802 3.05902C75.2276 3.05902 74.8661 3.16433 74.5947 3.37398C74.3255 3.58165 74.1914 3.87299 74.1914 4.24799Z" fill="white"/>
<path d="M84.6793 18.2676C84.6793 19.2391 84.7544 20.0511 84.9067 20.7046C84.2567 20.7834 83.5552 20.8227 82.8001 20.8227C82.4333 20.8227 82.2509 20.6751 82.2509 20.3779V8.61409C82.2509 8.19972 82.1694 7.90346 82.0064 7.72433C81.8455 7.54618 81.5387 7.45661 81.0839 7.45661C81.0635 6.94283 81.2094 6.54716 81.5215 6.27157C81.8358 5.99401 82.3378 5.85425 83.0275 5.85425C83.7161 5.85425 84.2127 6.16035 84.5163 6.77157C85.2285 6.16035 85.9987 5.85425 86.8289 5.85425C87.6612 5.85425 88.3305 6.10228 88.8368 6.59834C89.3452 7.09244 89.6005 7.79421 89.6005 8.70464V18.2401C89.6005 18.6554 89.6799 18.9517 89.8408 19.1298C90.0038 19.309 90.3106 19.3975 90.7633 19.3975C90.7858 19.9123 90.6399 20.309 90.3256 20.5865C90.0135 20.8621 89.5555 20.9999 88.9527 20.9999C88.3488 20.9999 87.9015 20.8316 87.6097 20.496C87.318 20.1603 87.1721 19.6062 87.1721 18.8346V8.8818C87.1721 8.22826 86.8042 7.90149 86.0695 7.90149C85.4656 7.90149 85.0022 8.20858 84.6793 8.82275V18.2676Z" fill="white"/>
<path d="M92.1228 2.2874C92.1228 1.83366 92.0252 1.23031 91.8311 0.476378C92.48 0.159449 93.1708 0 93.9034 0C94.3346 0 94.5512 0.148622 94.5512 0.444882V18.2401C94.5512 18.6555 94.6306 18.9518 94.7915 19.1299C94.9545 19.309 95.2634 19.3976 95.7182 19.3976C95.7375 19.9124 95.5906 20.309 95.2763 20.5866C94.9642 20.8622 94.5062 21 93.9034 21C93.2995 21 92.8522 20.8317 92.5604 20.496C92.2687 20.1604 92.1228 19.6063 92.1228 18.8346V2.2874Z" fill="white"/>
<path d="M98.5959 3.44491C97.6692 3.44491 97.2058 2.88093 97.2058 1.75199C97.2058 0.624042 97.6692 0.059082 98.5959 0.059082C99.5248 0.059082 99.9903 0.624042 99.9903 1.75199C99.9903 2.88093 99.5248 3.44491 98.5959 3.44491ZM96.5879 6.14963H99.8273V18.2402C99.8273 18.6555 99.9066 18.9518 100.068 19.1299C100.231 19.3091 100.537 19.3976 100.99 19.3976C101.013 19.9124 100.867 20.3091 100.552 20.5866C100.24 20.8622 99.7822 21 99.1794 21C98.5755 21 98.1282 20.8317 97.8365 20.4961C97.5447 20.1604 97.3989 19.6063 97.3989 18.8347V7.93309L96.3949 8.07876C96.2426 7.56498 96.1675 7.11419 96.1675 6.72837C96.1675 6.34254 96.3069 6.14963 96.5879 6.14963Z" fill="white"/>
<path d="M105.104 18.2676C105.104 19.2391 105.179 20.0511 105.332 20.7046C104.682 20.7834 103.98 20.8227 103.225 20.8227C102.858 20.8227 102.676 20.6751 102.676 20.3779V8.61409C102.676 8.19972 102.594 7.90346 102.431 7.72433C102.27 7.54618 101.964 7.45661 101.509 7.45661C101.488 6.94283 101.634 6.54716 101.946 6.27157C102.261 5.99401 102.763 5.85425 103.452 5.85425C104.141 5.85425 104.638 6.16035 104.941 6.77157C105.653 6.16035 106.423 5.85425 107.254 5.85425C108.086 5.85425 108.755 6.10228 109.262 6.59834C109.77 7.09244 110.025 7.79421 110.025 8.70464V18.2401C110.025 18.6554 110.105 18.9517 110.266 19.1298C110.429 19.309 110.735 19.3975 111.188 19.3975C111.211 19.9123 111.065 20.309 110.75 20.5865C110.438 20.8621 109.98 20.9999 109.377 20.9999C108.774 20.9999 108.326 20.8316 108.035 20.496C107.743 20.1603 107.597 19.6062 107.597 18.8346V8.8818C107.597 8.22826 107.229 7.90149 106.494 7.90149C105.89 7.90149 105.427 8.20858 105.104 8.82275V18.2676Z" fill="white"/>
<path d="M117.37 9.03141C117.37 8.63574 117.239 8.32275 116.979 8.0944C116.722 7.86606 116.398 7.75188 116.01 7.75188C115.212 7.75188 114.813 8.05897 114.813 8.67314V12.9212L116.366 11.8542C117.035 11.3976 117.37 10.4566 117.37 9.03141ZM112.384 18.059V8.76369C112.384 6.82472 113.63 5.85425 116.121 5.85425C118.615 5.85425 119.863 6.94283 119.863 9.11802C119.863 9.99007 119.689 10.7932 119.343 11.5275C119 12.2598 118.526 12.8139 117.923 13.1889L114.813 15.1495V17.8542C114.813 18.6869 115.239 19.1023 116.091 19.1023C116.943 19.1023 117.37 18.6367 117.37 17.7046V17.0196L117.275 15.6259C117.555 15.5659 117.842 15.5353 118.134 15.5353C118.425 15.5353 118.7 15.5747 118.957 15.6535C119.474 15.7745 119.734 16.0029 119.734 16.3385V18.4763C119.734 19.2696 119.393 19.8887 118.713 20.3346C118.035 20.7775 117.134 20.9999 116.01 20.9999C113.592 20.9999 112.384 20.0196 112.384 18.059Z" fill="white"/>
</svg>
